<svg width="262" height="262" viewBox="0 0 262 262" fill="none" xmlns="http://www.w3.org/2000/svg">
<path d="M59.1629 131L29.5814 160.581L0 131L29.5814 101.419L59.1629 131ZM131 59.1612L181.711 109.871L211.291 80.2903L131 0L50.7113 80.2903L80.2907 109.871L131 59.1612ZM232.421 101.419L202.839 131L232.421 160.581L262 131L232.421 101.419ZM131 202.839L80.2907 152.129L50.7113 181.71L131 262L211.291 181.71L181.711 152.129L131 202.839ZM131 160.581L160.581 131L131 101.419L101.421 131L131 160.581Z" fill="#F0B90B"/>
</svg>
